<svg xmlns="http://www.w3.org/2000/svg" viewBox="0 0 512 512">
  <title>Cookslate</title>
  <style>
    .bg { fill: #F5EDE3; }
    .pot { stroke: #C1694F; }
    @media (prefers-color-scheme: dark) {
      .bg { fill: #3E2723; }
      .pot { stroke: #D4896F; }
    }
  </style>
  <rect width="512" height="512" rx="96" class="bg"/>
  <g class="pot" fill="none" stroke-width="24" stroke-linecap="round" stroke-linejoin="round">
    <path d="M144 240h224v120c0 40-32 72-72 72H216c-40 0-72-32-72-72V240z"/>
    <line x1="124" y1="240" x2="388" y2="240"/>
    <path d="M124 264h-20c-16 0-28-12-28-28v0c0-16 12-28 28-28h20"/>
    <path d="M388 264h20c16 0 28-12 28-28v0c0-16-12-28-28-28h-20"/>
    <path d="M224 192h64"/>
    <path d="M208 160c0-16 16-24 16-40" stroke-width="18"/>
    <path d="M256 148c0-16 16-24 16-40" stroke-width="18"/>
    <path d="M304 160c0-16 16-24 16-40" stroke-width="18"/>
  </g>
</svg>
